<svg width="600" height="400" viewBox="0 0 600 400" xmlns="http://www.w3.org/2000/svg">
  <rect width="600" height="400" fill="#f5f5f5"/>
  
  <!-- Design Elements -->
  <rect x="100" y="80" width="400" height="240" rx="8" fill="#e2e8f0"/>
  
  <!-- Artboard -->
  <rect x="150" y="120" width="300" height="160" rx="4" fill="white"/>
  
  <!-- Design Elements -->
  <rect x="170" y="140" width="120" height="10" rx="2" fill="#94a3b8"/>
  <rect x="170" y="160" width="260" height="6" rx="2" fill="#cbd5e1"/>
  <rect x="170" y="176" width="260" height="6" rx="2" fill="#cbd5e1"/>
  <rect x="170" y="192" width="180" height="6" rx="2" fill="#cbd5e1"/>
  
  <!-- Image Placeholder -->
  <rect x="170" y="214" width="100" height="50" rx="2" fill="#94a3b8"/>
  <rect x="284" y="214" width="146" height="50" rx="2" fill="#94a3b8"/>
  
  <!-- Design Tools -->
  <circle cx="120" y="180" r="15" fill="#475569"/>
  <circle cx="120" y="220" r="15" fill="#64748b"/>
  <circle cx="120" y="260" r="15" fill="#94a3b8"/>
  
  <rect x="460" y="180" width="30" height="30" rx="2" fill="#475569"/>
  <rect x="460" y="220" width="30" height="30" rx="2" fill="#64748b"/>
  
  <!-- Color Palette -->
  <circle cx="530" y="150" r="8" fill="#ef4444"/>
  <circle cx="530" y="180" r="8" fill="#f97316"/>
  <circle cx="530" y="210" r="8" fill="#3b82f6"/>
  <circle cx="530" y="240" r="8" fill="#14b8a6"/>
  <circle cx="530" y="270" r="8" fill="#8b5cf6"/>
  
  <!-- Logo -->
  <text x="300" y="350" font-family="Arial" font-size="16" font-weight="bold" text-anchor="middle" fill="#334155">DESIGN SUBSCRIPTION</text>
</svg> 